<svg id="svg" version="1.1" xmlns="http://www.w3.org/2000/svg" xmlns:xlink="http://www.w3.org/1999/xlink" width="400" height="400" viewBox="0, 0, 400,400"><g id="svgg"><path id="path0" d="M276.313 61.200 C 276.192 61.530,275.882 63.060,275.623 64.600 C 275.364 66.140,274.996 68.210,274.806 69.200 C 274.616 70.190,274.268 72.080,274.032 73.400 C 273.250 77.779,272.417 81.890,272.194 82.472 C 272.035 82.885,270.095 83.301,265.287 83.952 C 261.609 84.450,257.736 85.025,256.680 85.229 C 255.624 85.433,254.004 85.613,253.080 85.628 C 249.653 85.685,249.507 87.179,252.926 87.207 C 253.826 87.215,256.947 87.750,264.600 89.208 C 267.020 89.669,269.592 90.150,270.315 90.278 C 271.841 90.547,272.231 91.125,272.560 93.600 C 272.692 94.590,273.086 97.380,273.436 99.800 C 273.787 102.220,274.224 105.280,274.408 106.600 C 275.162 112.010,275.321 112.772,275.653 112.567 C 275.844 112.449,276.000 111.813,276.000 111.154 C 276.000 110.494,276.166 109.200,276.368 108.277 C 276.803 106.294,277.233 103.953,278.406 97.200 C 279.640 90.088,279.184 90.666,284.051 90.060 C 286.333 89.777,289.190 89.387,290.400 89.194 C 295.721 88.346,298.458 88.000,299.877 87.994 C 304.170 87.977,302.546 87.260,295.400 86.017 C 284.961 84.203,280.240 83.189,279.936 82.696 C 279.769 82.427,279.524 81.215,279.391 80.003 C 279.257 78.792,278.996 76.900,278.811 75.800 C 278.625 74.700,278.264 72.180,278.009 70.200 C 277.242 64.261,276.545 60.563,276.313 61.200 M188.600 130.222 C 164.010 133.783,142.820 150.371,133.954 173.000 C 132.011 177.958,130.361 184.521,130.921 185.065 C 137.779 191.720,158.891 185.145,183.247 168.769 C 188.214 165.428,188.641 165.524,185.700 169.320 C 179.751 176.998,172.869 184.413,164.994 191.627 C 156.112 199.764,143.035 208.217,133.500 211.984 C 131.044 212.954,130.665 213.752,131.549 216.081 C 131.741 216.587,132.114 217.720,132.378 218.600 C 133.843 223.479,137.182 230.659,139.690 234.322 C 141.264 236.621,141.033 236.944,137.135 237.908 C 135.301 238.361,132.810 238.994,131.600 239.315 C 113.016 244.239,102.249 244.181,98.911 239.138 C 96.676 235.760,98.791 229.575,104.356 223.217 C 107.006 220.189,105.505 221.114,97.000 227.752 C 62.306 254.832,56.273 271.841,82.043 269.926 C 93.814 269.052,118.872 262.099,132.311 255.979 C 133.252 255.551,134.184 255.200,134.382 255.200 C 134.689 255.200,144.627 251.113,147.000 250.010 C 147.440 249.806,149.870 248.709,152.400 247.572 C 173.239 238.211,199.104 224.602,216.200 214.005 C 217.520 213.187,220.310 211.466,222.400 210.181 C 231.852 204.367,248.451 192.972,253.937 188.530 C 255.112 187.578,256.237 186.800,256.437 186.800 C 258.863 186.800,246.811 198.855,234.600 208.642 C 217.207 222.583,203.959 230.811,177.800 243.922 C 169.854 247.905,165.655 249.902,156.100 254.245 C 146.057 258.810,129.736 265.298,121.200 268.118 C 115.120 270.126,118.044 270.058,128.600 267.945 C 135.983 266.467,144.443 263.907,157.155 259.305 C 162.586 257.339,163.410 257.139,164.155 257.606 C 168.285 260.196,177.371 263.684,183.000 264.841 C 216.236 271.673,248.141 254.927,261.190 223.800 C 262.005 221.857,262.930 219.297,263.251 218.100 C 263.443 217.385,263.781 216.125,264.003 215.300 C 264.799 212.340,265.536 208.100,265.819 204.854 C 266.154 201.020,265.802 201.472,271.907 197.023 C 319.555 162.293,328.121 139.429,291.000 146.062 C 289.680 146.298,288.163 146.661,287.630 146.869 C 286.879 147.161,286.420 147.069,285.599 146.463 C 281.654 143.546,274.334 143.308,261.600 145.684 C 256.225 146.687,255.618 146.996,258.378 147.323 C 272.540 149.000,267.564 162.434,245.999 180.746 C 241.949 184.184,241.921 184.207,237.597 187.426 C 229.705 193.301,225.641 196.114,220.600 199.191 C 214.467 202.934,206.082 207.925,204.000 209.071 C 202.790 209.737,201.080 210.692,200.200 211.192 C 199.320 211.692,196.440 213.228,193.800 214.604 C 178.701 222.474,177.414 223.070,176.991 222.386 C 176.876 222.199,178.091 221.289,179.691 220.363 C 188.727 215.135,201.092 206.986,209.600 200.652 C 214.289 197.161,230.640 184.249,231.200 183.596 C 231.310 183.467,233.290 181.845,235.600 179.990 C 243.246 173.851,254.392 161.995,254.392 160.000 C 254.392 159.170,250.916 154.621,247.485 150.960 C 240.944 143.981,230.673 137.151,222.000 134.012 L 219.800 133.216 217.225 136.108 C 212.161 141.795,201.585 151.200,200.254 151.200 C 199.674 151.200,200.073 149.931,201.161 148.320 C 202.758 145.954,206.009 140.257,207.279 137.600 C 210.294 131.294,210.319 131.230,209.857 130.874 C 208.334 129.698,195.036 129.291,188.600 130.222 M290.037 152.100 C 295.548 156.880,289.830 167.511,274.024 181.874 C 269.108 186.341,267.827 187.071,267.312 185.700 C 267.167 185.315,266.543 184.137,265.924 183.082 C 264.686 180.971,264.510 179.808,265.352 179.320 C 267.016 178.355,276.676 169.015,280.025 165.133 C 284.118 160.387,286.821 155.830,287.413 152.671 C 287.738 150.938,288.505 150.771,290.037 152.100 " stroke="none" fill="#f9fbfb" fill-rule="evenodd"></path><path id="path1" d="M70.826 71.322 L 69.851 72.600 71.126 71.425 C 72.451 70.203,72.603 69.985,72.100 70.022 C 71.935 70.034,71.362 70.619,70.826 71.322 M314.850 151.734 C 314.850 161.517,297.497 179.694,268.135 200.667 C 266.999 201.479,266.903 201.751,266.646 204.867 C 262.778 251.812,211.056 280.895,167.986 260.342 L 162.972 257.950 157.986 259.820 C 138.538 267.116,114.800 272.698,114.800 269.977 C 114.800 269.422,115.558 269.109,122.600 266.750 C 150.408 257.435,193.086 236.852,214.600 222.380 C 229.328 212.472,239.730 204.156,250.300 193.837 C 256.029 188.245,255.979 187.885,250.090 192.332 C 245.678 195.664,231.422 205.397,225.600 209.053 C 206.890 220.800,190.222 230.133,171.400 239.400 C 123.521 262.973,82.504 275.270,70.300 269.710 C 68.367 268.830,67.726 269.082,69.226 270.133 C 70.109 270.752,72.509 272.974,79.208 279.378 C 81.522 281.590,85.302 285.195,87.608 287.389 C 89.914 289.583,93.694 293.183,96.008 295.389 C 98.322 297.595,102.102 301.195,104.408 303.389 C 106.714 305.582,110.580 309.275,113.000 311.594 C 115.420 313.912,121.090 319.314,125.600 323.597 C 130.110 327.879,135.687 333.187,137.994 335.392 C 145.058 342.143,150.405 347.242,154.795 351.414 C 157.102 353.606,160.882 357.206,163.195 359.414 C 165.508 361.621,169.288 365.221,171.595 367.414 C 173.903 369.606,177.773 373.322,180.195 375.672 C 182.618 378.021,185.095 380.329,185.700 380.801 C 186.781 381.643,187.186 382.800,186.400 382.800 C 186.180 382.800,186.000 382.980,186.000 383.200 C 186.000 383.461,192.259 383.600,203.976 383.600 C 215.529 383.600,222.041 383.457,222.200 383.200 C 222.336 382.980,223.967 382.800,225.824 382.800 C 227.808 382.800,229.200 382.635,229.200 382.400 C 229.200 382.171,230.400 382.000,232.000 382.000 C 233.600 382.000,234.800 381.829,234.800 381.600 C 234.800 381.380,235.779 381.200,236.976 381.200 C 238.173 381.200,239.264 381.020,239.400 380.800 C 239.536 380.580,240.436 380.400,241.400 380.400 C 242.364 380.400,243.264 380.220,243.400 380.000 C 243.536 379.780,244.357 379.600,245.224 379.600 C 246.091 379.600,246.800 379.420,246.800 379.200 C 246.800 378.980,247.520 378.800,248.400 378.800 C 249.280 378.800,250.000 378.620,250.000 378.400 C 250.000 378.180,250.720 378.000,251.600 378.000 C 252.480 378.000,253.200 377.820,253.200 377.600 C 253.200 377.380,253.740 377.200,254.400 377.200 C 255.060 377.200,255.600 377.020,255.600 376.800 C 255.600 376.580,256.320 376.400,257.200 376.400 C 258.080 376.400,258.800 376.220,258.800 376.000 C 258.800 375.780,259.340 375.600,260.000 375.600 C 260.660 375.600,261.200 375.420,261.200 375.200 C 261.200 374.980,261.740 374.800,262.400 374.800 C 263.060 374.800,263.600 374.620,263.600 374.400 C 263.600 374.180,264.140 374.000,264.800 374.000 C 265.460 374.000,266.000 373.820,266.000 373.600 C 266.000 373.380,266.439 373.200,266.976 373.200 C 267.513 373.200,268.064 373.020,268.200 372.800 C 268.336 372.580,268.797 372.400,269.224 372.400 C 269.651 372.400,270.000 372.220,270.000 372.000 C 270.000 371.780,270.540 371.600,271.200 371.600 C 271.860 371.600,272.400 371.420,272.400 371.200 C 272.400 370.980,272.760 370.800,273.200 370.800 C 273.640 370.800,274.000 370.620,274.000 370.400 C 274.000 370.180,274.540 370.000,275.200 370.000 C 275.860 370.000,276.400 369.820,276.400 369.600 C 276.400 369.380,276.760 369.200,277.200 369.200 C 277.640 369.200,278.000 369.020,278.000 368.800 C 278.000 368.580,278.360 368.400,278.800 368.400 C 279.240 368.400,279.600 368.220,279.600 368.000 C 279.600 367.780,279.960 367.600,280.400 367.600 C 280.840 367.600,281.200 367.420,281.200 367.200 C 281.200 366.980,281.740 366.800,282.400 366.800 C 283.060 366.800,283.600 366.620,283.600 366.400 C 283.600 366.180,283.960 366.000,284.400 366.000 C 284.840 366.000,285.200 365.820,285.200 365.600 C 285.200 365.380,285.560 365.200,286.000 365.200 C 286.440 365.200,286.800 365.020,286.800 364.800 C 286.800 364.580,287.160 364.400,287.600 364.400 C 288.040 364.400,288.400 364.220,288.400 364.000 C 288.400 363.780,288.760 363.600,289.200 363.600 C 289.640 363.600,290.000 363.420,290.000 363.200 C 290.000 362.980,290.236 362.800,290.525 362.800 C 290.813 362.800,291.436 362.440,291.908 362.000 C 292.380 361.560,293.044 361.200,293.383 361.200 C 293.722 361.200,294.000 361.020,294.000 360.800 C 294.000 360.580,294.360 360.400,294.800 360.400 C 295.240 360.400,295.600 360.220,295.600 360.000 C 295.600 359.780,295.920 359.600,296.312 359.600 C 296.703 359.600,297.283 359.240,297.600 358.800 C 297.917 358.360,298.497 358.000,298.888 358.000 C 299.280 358.000,299.600 357.820,299.600 357.600 C 299.600 357.380,299.920 357.200,300.312 357.200 C 300.703 357.200,301.283 356.840,301.600 356.400 C 301.917 355.960,302.457 355.600,302.800 355.600 C 303.143 355.600,303.683 355.240,304.000 354.800 C 304.317 354.360,304.897 354.000,305.288 354.000 C 305.680 354.000,306.000 353.820,306.000 353.600 C 306.000 353.380,306.243 353.200,306.541 353.200 C 306.838 353.200,307.646 352.660,308.337 352.000 C 309.028 351.340,309.825 350.800,310.108 350.800 C 310.391 350.800,310.883 350.440,311.200 350.000 C 311.517 349.560,312.025 349.200,312.328 349.200 C 312.631 349.200,313.383 348.660,314.000 348.000 C 314.617 347.340,315.337 346.800,315.600 346.800 C 315.863 346.800,316.583 346.260,317.200 345.600 C 317.817 344.940,318.501 344.400,318.720 344.400 C 318.939 344.400,320.038 343.500,321.161 342.400 C 322.285 341.300,323.390 340.400,323.617 340.400 C 323.845 340.400,325.599 338.822,327.515 336.893 C 329.432 334.964,331.630 332.942,332.400 332.399 C 334.173 331.151,335.937 329.390,337.196 327.613 C 337.736 326.850,339.758 324.634,341.689 322.689 C 343.620 320.743,345.200 318.983,345.200 318.777 C 345.200 318.572,346.100 317.485,347.200 316.361 C 348.300 315.238,349.200 314.139,349.200 313.920 C 349.200 313.701,349.740 313.017,350.400 312.400 C 351.060 311.783,351.600 311.063,351.600 310.800 C 351.600 310.537,352.140 309.817,352.800 309.200 C 353.460 308.583,354.000 307.831,354.000 307.528 C 354.000 307.225,354.360 306.717,354.800 306.400 C 355.240 306.083,355.600 305.543,355.600 305.200 C 355.600 304.857,355.960 304.317,356.400 304.000 C 356.840 303.683,357.200 303.143,357.200 302.800 C 357.200 302.457,357.560 301.917,358.000 301.600 C 358.440 301.283,358.800 300.743,358.800 300.400 C 358.800 300.057,359.160 299.517,359.600 299.200 C 360.040 298.883,360.400 298.343,360.400 298.000 C 360.400 297.657,360.760 297.117,361.200 296.800 C 361.640 296.483,362.000 295.903,362.000 295.512 C 362.000 295.120,362.180 294.800,362.400 294.800 C 362.620 294.800,362.800 294.480,362.800 294.088 C 362.800 293.697,363.160 293.117,363.600 292.800 C 364.040 292.483,364.400 291.903,364.400 291.512 C 364.400 291.120,364.580 290.800,364.800 290.800 C 365.020 290.800,365.200 290.440,365.200 290.000 C 365.200 289.560,365.380 289.200,365.600 289.200 C 365.820 289.200,366.000 288.922,366.000 288.583 C 366.000 288.244,366.360 287.580,366.800 287.108 C 367.240 286.636,367.600 286.013,367.600 285.725 C 367.600 285.436,367.780 285.200,368.000 285.200 C 368.220 285.200,368.400 284.840,368.400 284.400 C 368.400 283.960,368.580 283.600,368.800 283.600 C 369.020 283.600,369.200 283.240,369.200 282.800 C 369.200 282.360,369.380 282.000,369.600 282.000 C 369.820 282.000,370.000 281.640,370.000 281.200 C 370.000 280.760,370.180 280.400,370.400 280.400 C 370.620 280.400,370.800 280.128,370.800 279.795 C 370.800 279.462,370.980 278.832,371.200 278.395 C 371.420 277.958,371.780 277.242,372.000 276.805 C 372.220 276.368,372.400 275.738,372.400 275.405 C 372.400 275.072,372.580 274.800,372.800 274.800 C 373.020 274.800,373.200 274.440,373.200 274.000 C 373.200 273.560,373.380 273.200,373.600 273.200 C 373.820 273.200,374.000 272.840,374.000 272.400 C 374.000 271.960,374.180 271.600,374.400 271.600 C 374.620 271.600,374.800 271.060,374.800 270.400 C 374.800 269.740,374.980 269.200,375.200 269.200 C 375.420 269.200,375.600 268.840,375.600 268.400 C 375.600 267.960,375.780 267.600,376.000 267.600 C 376.220 267.600,376.400 267.060,376.400 266.400 C 376.400 265.740,376.580 265.200,376.800 265.200 C 377.020 265.200,377.200 264.761,377.200 264.224 C 377.200 263.687,377.380 263.136,377.600 263.000 C 377.820 262.864,378.000 262.403,378.000 261.976 C 378.000 261.549,378.180 261.200,378.400 261.200 C 378.620 261.200,378.800 260.660,378.800 260.000 C 378.800 259.340,378.980 258.800,379.200 258.800 C 379.420 258.800,379.600 258.260,379.600 257.600 C 379.600 256.940,379.780 256.400,380.000 256.400 C 380.220 256.400,380.400 255.860,380.400 255.200 C 380.400 254.540,380.580 254.000,380.800 254.000 C 381.020 254.000,381.200 253.280,381.200 252.400 C 381.200 251.520,381.380 250.800,381.600 250.800 C 381.820 250.800,382.000 250.260,382.000 249.600 C 382.000 248.940,382.180 248.400,382.400 248.400 C 382.620 248.400,382.800 247.680,382.800 246.800 C 382.800 245.920,382.980 245.200,383.200 245.200 C 383.420 245.200,383.600 244.480,383.600 243.600 C 383.600 242.720,383.780 242.000,384.000 242.000 C 384.220 242.000,384.400 241.100,384.400 240.000 C 384.400 238.900,384.580 238.000,384.800 238.000 C 385.020 238.000,385.200 237.100,385.200 236.000 C 385.200 234.900,385.380 234.000,385.600 234.000 C 385.820 234.000,386.000 233.111,386.000 232.024 C 386.000 230.937,386.180 229.936,386.400 229.800 C 386.620 229.664,386.800 228.393,386.800 226.976 C 386.800 225.525,386.975 224.400,387.200 224.400 C 387.420 224.400,387.600 224.119,387.600 223.776 C 387.600 223.433,387.443 223.250,387.250 223.369 C 386.828 223.630,387.080 223.872,376.426 212.972 C 359.641 195.801,344.659 180.408,321.167 156.200 C 318.392 153.340,315.835 150.571,315.486 150.047 C 314.873 149.127,314.850 149.188,314.850 151.734 M288.032 153.700 C 286.455 159.114,278.350 169.026,268.200 177.955 L 265.400 180.418 266.799 183.047 C 267.569 184.493,268.289 185.729,268.399 185.793 C 268.774 186.012,278.773 176.619,282.008 173.009 C 290.236 163.827,293.145 156.773,290.164 153.231 C 288.817 151.629,288.622 151.672,288.032 153.700 M386.800 174.553 C 386.800 174.883,386.980 175.264,387.200 175.400 C 387.420 175.536,387.600 175.377,387.600 175.047 C 387.600 174.717,387.420 174.336,387.200 174.200 C 386.980 174.064,386.800 174.223,386.800 174.553 M387.892 216.642 C 387.731 216.802,387.600 217.209,387.600 217.547 C 387.600 217.997,387.718 218.042,388.045 217.715 C 388.290 217.470,388.421 217.063,388.337 216.810 C 388.252 216.557,388.052 216.481,387.892 216.642 " stroke="none" fill="#0b8bb3" fill-rule="evenodd"></path><path id="path2" d="M187.789 15.217 C 187.659 15.428,186.519 15.600,185.256 15.600 C 183.993 15.600,182.789 15.766,182.580 15.969 C 182.371 16.172,180.940 16.430,179.400 16.543 C 177.860 16.656,175.430 16.948,174.000 17.192 C 172.570 17.436,170.500 17.734,169.400 17.854 C 168.300 17.975,167.229 18.237,167.020 18.437 C 166.811 18.637,165.956 18.800,165.120 18.800 C 164.284 18.800,163.600 18.980,163.600 19.200 C 163.600 19.420,162.891 19.600,162.024 19.600 C 161.157 19.600,160.336 19.780,160.200 20.000 C 160.064 20.220,159.254 20.400,158.400 20.400 C 157.546 20.400,156.736 20.580,156.600 20.800 C 156.464 21.020,155.823 21.200,155.176 21.200 C 154.529 21.200,154.000 21.380,154.000 21.600 C 154.000 21.820,153.471 22.000,152.824 22.000 C 152.177 22.000,151.536 22.180,151.400 22.400 C 151.264 22.620,150.634 22.800,150.000 22.800 C 149.366 22.800,148.736 22.980,148.600 23.200 C 148.464 23.420,147.823 23.600,147.176 23.600 C 146.529 23.600,146.000 23.780,146.000 24.000 C 146.000 24.220,145.638 24.400,145.195 24.400 C 144.752 24.400,144.032 24.580,143.595 24.800 C 143.158 25.020,142.442 25.380,142.005 25.600 C 141.568 25.820,140.848 26.000,140.405 26.000 C 139.962 26.000,139.600 26.180,139.600 26.400 C 139.600 26.620,139.060 26.800,138.400 26.800 C 137.740 26.800,137.200 26.980,137.200 27.200 C 137.200 27.420,136.845 27.600,136.412 27.600 C 135.979 27.600,134.983 27.960,134.200 28.400 C 133.417 28.840,132.511 29.200,132.188 29.200 C 131.865 29.200,131.600 29.380,131.600 29.600 C 131.600 29.820,131.060 30.000,130.400 30.000 C 129.740 30.000,129.199 30.135,129.197 30.300 C 129.193 30.659,127.256 31.600,126.520 31.600 C 126.234 31.600,126.000 31.780,126.000 32.000 C 126.000 32.220,125.640 32.400,125.200 32.400 C 124.760 32.400,124.400 32.580,124.400 32.800 C 124.400 33.020,124.040 33.200,123.600 33.200 C 123.160 33.200,122.800 33.380,122.800 33.600 C 122.800 33.820,122.440 34.000,122.000 34.000 C 121.560 34.000,121.200 34.180,121.200 34.400 C 121.200 34.620,120.840 34.800,120.400 34.800 C 119.960 34.800,119.600 34.980,119.600 35.200 C 119.600 35.420,119.240 35.600,118.800 35.600 C 118.360 35.600,118.000 35.780,118.000 36.000 C 118.000 36.220,117.640 36.400,117.200 36.400 C 116.760 36.400,116.400 36.580,116.400 36.800 C 116.400 37.020,116.122 37.200,115.783 37.200 C 115.444 37.200,114.780 37.560,114.308 38.000 C 113.836 38.440,113.213 38.800,112.925 38.800 C 112.636 38.800,112.400 38.980,112.400 39.200 C 112.400 39.420,112.040 39.600,111.600 39.600 C 111.160 39.600,110.800 39.780,110.800 40.000 C 110.800 40.220,110.480 40.400,110.088 40.400 C 109.697 40.400,109.117 40.760,108.800 41.200 C 108.483 41.640,107.903 42.000,107.512 42.000 C 107.120 42.000,106.800 42.180,106.800 42.400 C 106.800 42.620,106.564 42.800,106.275 42.800 C 105.987 42.800,105.364 43.160,104.892 43.600 C 104.420 44.040,103.796 44.400,103.505 44.400 C 103.214 44.400,102.717 44.760,102.400 45.200 C 102.083 45.640,101.543 46.000,101.200 46.000 C 100.857 46.000,100.317 46.360,100.000 46.800 C 99.683 47.240,99.220 47.600,98.971 47.600 C 98.722 47.600,97.954 48.140,97.263 48.800 C 96.572 49.460,95.824 50.000,95.600 50.000 C 95.376 50.000,94.628 50.540,93.937 51.200 C 93.246 51.860,92.510 52.400,92.301 52.400 C 92.092 52.400,91.417 52.940,90.800 53.600 C 90.183 54.260,89.499 54.800,89.280 54.800 C 89.061 54.800,87.962 55.700,86.839 56.800 C 85.715 57.900,84.616 58.800,84.396 58.800 C 84.176 58.800,82.010 60.780,79.582 63.200 C 77.155 65.620,74.987 67.600,74.766 67.600 C 74.271 67.600,72.400 69.431,72.400 69.915 C 72.400 70.108,70.420 72.306,68.000 74.800 C 65.580 77.294,63.600 79.493,63.600 79.686 C 63.600 79.880,62.700 80.938,61.600 82.038 C 60.500 83.138,59.600 84.211,59.600 84.423 C 59.600 84.634,59.060 85.372,58.400 86.063 C 57.740 86.754,57.200 87.490,57.200 87.699 C 57.200 87.908,56.660 88.583,56.000 89.200 C 55.340 89.817,54.800 90.537,54.800 90.800 C 54.800 91.063,54.260 91.783,53.600 92.400 C 52.940 93.017,52.400 93.809,52.400 94.160 C 52.400 94.512,52.250 94.800,52.068 94.800 C 51.885 94.800,51.480 95.295,51.168 95.900 C 50.855 96.505,50.285 97.349,49.900 97.775 C 49.515 98.202,49.200 98.787,49.200 99.075 C 49.200 99.364,49.020 99.600,48.800 99.600 C 48.580 99.600,48.400 99.920,48.400 100.312 C 48.400 100.703,48.040 101.283,47.600 101.600 C 47.160 101.917,46.800 102.414,46.800 102.705 C 46.800 102.996,46.440 103.620,46.000 104.092 C 45.560 104.564,45.200 105.187,45.200 105.475 C 45.200 105.764,45.020 106.000,44.800 106.000 C 44.580 106.000,44.400 106.360,44.400 106.800 C 44.400 107.240,44.220 107.600,44.000 107.600 C 43.780 107.600,43.600 107.836,43.600 108.125 C 43.600 108.413,43.240 109.036,42.800 109.508 C 42.360 109.980,42.000 110.518,42.000 110.704 C 42.000 111.297,41.011 113.194,40.700 113.197 C 40.535 113.199,40.400 113.560,40.400 114.000 C 40.400 114.440,40.220 114.800,40.000 114.800 C 39.780 114.800,39.600 115.160,39.600 115.600 C 39.600 116.040,39.420 116.400,39.200 116.400 C 38.980 116.400,38.800 116.760,38.800 117.200 C 38.800 117.640,38.620 118.000,38.400 118.000 C 38.180 118.000,38.000 118.360,38.000 118.800 C 38.000 119.240,37.820 119.600,37.600 119.600 C 37.380 119.600,37.200 119.960,37.200 120.400 C 37.200 120.840,37.020 121.200,36.800 121.200 C 36.580 121.200,36.400 121.560,36.400 122.000 C 36.400 122.440,36.220 122.800,36.000 122.800 C 35.780 122.800,35.600 123.149,35.600 123.576 C 35.600 124.003,35.420 124.464,35.200 124.600 C 34.980 124.736,34.800 125.287,34.800 125.824 C 34.800 126.361,34.620 126.800,34.400 126.800 C 34.180 126.800,34.000 127.065,34.000 127.388 C 34.000 127.711,33.640 128.617,33.200 129.400 C 32.760 130.183,32.400 131.179,32.400 131.612 C 32.400 132.045,32.220 132.400,32.000 132.400 C 31.780 132.400,31.600 132.940,31.600 133.600 C 31.600 134.260,31.420 134.800,31.200 134.800 C 30.980 134.800,30.800 135.162,30.800 135.605 C 30.800 136.048,30.620 136.768,30.400 137.205 C 30.180 137.642,29.820 138.358,29.600 138.795 C 29.380 139.232,29.200 139.941,29.200 140.371 C 29.200 140.801,29.020 141.264,28.800 141.400 C 28.580 141.536,28.400 142.089,28.400 142.629 C 28.400 143.575,28.272 143.941,27.262 145.895 C 27.008 146.387,26.800 147.332,26.800 147.995 C 26.800 148.658,26.620 149.200,26.400 149.200 C 26.180 149.200,26.000 149.909,26.000 150.776 C 26.000 151.643,25.820 152.464,25.600 152.600 C 25.380 152.736,25.200 153.467,25.200 154.224 C 25.200 154.981,25.020 155.600,24.800 155.600 C 24.580 155.600,24.400 156.320,24.400 157.200 C 24.400 158.080,24.220 158.800,24.000 158.800 C 23.780 158.800,23.600 159.700,23.600 160.800 C 23.600 161.900,23.420 162.800,23.200 162.800 C 22.980 162.800,22.800 163.689,22.800 164.776 C 22.800 165.863,22.620 166.864,22.400 167.000 C 22.180 167.136,22.000 168.281,22.000 169.544 C 22.000 170.807,21.835 172.011,21.632 172.220 C 21.430 172.429,21.165 173.770,21.042 175.200 C 20.559 180.852,20.315 182.616,19.965 182.980 C 19.449 183.517,19.483 215.600,20.000 215.600 C 20.229 215.600,20.400 216.800,20.400 218.400 C 20.400 220.000,20.571 221.200,20.800 221.200 C 21.031 221.200,21.200 222.459,21.200 224.176 C 21.200 225.813,21.380 227.264,21.600 227.400 C 21.820 227.536,22.000 228.616,22.000 229.800 C 22.000 230.984,22.180 232.064,22.400 232.200 C 22.620 232.336,22.800 233.236,22.800 234.200 C 22.800 235.164,22.980 236.064,23.200 236.200 C 23.420 236.336,23.600 237.146,23.600 238.000 C 23.600 238.854,23.780 239.664,24.000 239.800 C 24.220 239.936,24.400 240.746,24.400 241.600 C 24.400 242.454,24.580 243.264,24.800 243.400 C 25.020 243.536,25.200 244.256,25.200 245.000 C 25.200 245.744,25.380 246.464,25.600 246.600 C 25.820 246.736,26.000 247.456,26.000 248.200 C 26.000 248.944,26.180 249.664,26.400 249.800 C 26.620 249.936,26.800 250.577,26.800 251.224 C 26.800 251.871,26.980 252.400,27.200 252.400 C 27.420 252.400,27.600 252.839,27.600 253.376 C 27.600 253.913,27.780 254.464,28.000 254.600 C 28.220 254.736,28.400 255.377,28.400 256.024 C 28.400 256.671,28.580 257.200,28.800 257.200 C 29.020 257.200,29.200 257.740,29.200 258.400 C 29.200 259.060,29.380 259.600,29.600 259.600 C 29.820 259.600,30.000 260.140,30.000 260.800 C 30.000 261.460,30.180 262.000,30.400 262.000 C 30.620 262.000,30.800 262.439,30.800 262.976 C 30.800 263.513,30.980 264.064,31.200 264.200 C 31.420 264.336,31.600 264.876,31.600 265.400 C 31.600 265.924,31.780 266.464,32.000 266.600 C 32.220 266.736,32.400 267.197,32.400 267.624 C 32.400 268.051,32.580 268.400,32.800 268.400 C 33.020 268.400,33.200 268.760,33.200 269.200 C 33.200 269.640,33.380 270.000,33.600 270.000 C 33.820 270.000,34.000 270.355,34.000 270.788 C 34.000 271.221,34.360 272.217,34.800 273.000 C 35.240 273.783,35.600 274.689,35.600 275.012 C 35.600 275.335,35.780 275.600,36.000 275.600 C 36.220 275.600,36.400 275.949,36.400 276.376 C 36.400 276.803,36.580 277.264,36.800 277.400 C 37.020 277.536,37.200 278.004,37.200 278.440 C 37.200 278.877,37.560 279.620,38.000 280.092 C 38.440 280.564,38.800 281.367,38.800 281.875 C 38.800 282.384,38.980 282.800,39.200 282.800 C 39.420 282.800,39.600 283.160,39.600 283.600 C 39.600 284.040,39.752 284.400,39.937 284.400 C 40.123 284.400,40.708 285.255,41.237 286.300 C 41.767 287.345,42.335 288.260,42.500 288.333 C 42.665 288.407,42.800 288.797,42.800 289.200 C 42.800 289.603,42.935 289.993,43.100 290.067 C 43.265 290.140,43.833 291.055,44.363 292.100 C 44.892 293.145,45.477 294.000,45.663 294.000 C 45.848 294.000,46.000 294.236,46.000 294.525 C 46.000 294.813,46.360 295.436,46.800 295.908 C 47.240 296.380,47.600 296.962,47.600 297.200 C 47.600 297.438,47.960 298.020,48.400 298.492 C 48.840 298.964,49.200 299.587,49.200 299.875 C 49.200 300.164,49.380 300.400,49.600 300.400 C 49.820 300.400,50.000 300.636,50.000 300.925 C 50.000 301.213,50.360 301.836,50.800 302.308 C 51.240 302.780,51.600 303.309,51.601 303.483 C 51.601 303.657,52.141 304.430,52.800 305.200 C 53.459 305.970,53.999 306.785,53.999 307.012 C 54.000 307.238,54.360 307.683,54.800 308.000 C 55.240 308.317,55.600 308.780,55.600 309.029 C 55.600 309.278,56.097 310.003,56.704 310.641 C 57.312 311.278,58.248 312.430,58.785 313.200 C 59.323 313.970,60.086 314.891,60.481 315.247 C 60.876 315.603,61.200 316.108,61.200 316.369 C 61.200 316.630,62.280 317.904,63.600 319.200 C 64.920 320.496,66.000 321.748,66.000 321.983 C 66.000 322.513,81.535 338.000,82.067 338.000 C 82.279 338.000,83.329 338.900,84.400 340.000 C 85.471 341.100,86.518 342.000,86.726 342.000 C 86.934 342.000,87.845 342.720,88.752 343.600 C 89.659 344.480,90.605 345.200,90.854 345.200 C 91.102 345.200,91.597 345.524,91.953 345.919 C 92.309 346.314,93.230 347.071,94.000 347.600 C 94.770 348.129,95.691 348.886,96.047 349.281 C 96.403 349.676,96.948 350.000,97.259 350.000 C 97.569 350.000,98.083 350.360,98.400 350.800 C 98.717 351.240,99.231 351.600,99.541 351.600 C 99.852 351.600,100.397 351.916,100.753 352.303 C 101.109 352.689,101.895 353.260,102.500 353.570 C 103.105 353.881,103.600 354.285,103.600 354.468 C 103.600 354.650,103.920 354.800,104.312 354.800 C 104.703 354.800,105.283 355.160,105.600 355.600 C 105.917 356.040,106.457 356.400,106.800 356.400 C 107.143 356.400,107.683 356.760,108.000 357.200 C 108.317 357.640,108.897 358.000,109.288 358.000 C 109.680 358.000,110.000 358.180,110.000 358.400 C 110.000 358.620,110.360 358.800,110.800 358.800 C 111.240 358.800,111.600 358.980,111.600 359.200 C 111.600 359.420,111.960 359.600,112.400 359.600 C 112.840 359.600,113.200 359.752,113.200 359.937 C 113.200 360.123,114.055 360.708,115.100 361.237 C 116.145 361.767,117.060 362.335,117.133 362.500 C 117.207 362.665,117.612 362.800,118.033 362.800 C 118.455 362.800,118.800 362.980,118.800 363.200 C 118.800 363.420,119.160 363.600,119.600 363.600 C 120.040 363.600,120.400 363.780,120.400 364.000 C 120.400 364.220,120.760 364.400,121.200 364.400 C 121.640 364.400,122.000 364.580,122.000 364.800 C 122.000 365.020,122.360 365.200,122.800 365.200 C 123.240 365.200,123.600 365.380,123.600 365.600 C 123.600 365.820,123.960 366.000,124.400 366.000 C 124.840 366.000,125.200 366.180,125.200 366.400 C 125.200 366.620,125.434 366.800,125.720 366.800 C 126.456 366.800,128.393 367.741,128.397 368.100 C 128.399 368.265,128.839 368.400,129.376 368.400 C 129.913 368.400,130.464 368.580,130.600 368.800 C 130.736 369.020,131.197 369.200,131.624 369.200 C 132.051 369.200,132.400 369.380,132.400 369.600 C 132.400 369.820,132.749 370.000,133.176 370.000 C 133.603 370.000,134.064 370.180,134.200 370.400 C 134.336 370.620,134.887 370.800,135.424 370.800 C 135.961 370.800,136.400 370.980,136.400 371.200 C 136.400 371.420,136.749 371.600,137.176 371.600 C 137.603 371.600,138.064 371.780,138.200 372.000 C 138.336 372.220,138.887 372.400,139.424 372.400 C 139.961 372.400,140.400 372.580,140.400 372.800 C 140.400 373.020,140.940 373.200,141.600 373.200 C 142.260 373.200,142.800 373.380,142.800 373.600 C 142.800 373.820,143.239 374.000,143.776 374.000 C 144.313 374.000,144.864 374.180,145.000 374.400 C 145.136 374.620,145.676 374.800,146.200 374.800 C 146.724 374.800,147.264 374.980,147.400 375.200 C 147.536 375.420,148.177 375.600,148.824 375.600 C 149.471 375.600,150.000 375.780,150.000 376.000 C 150.000 376.220,150.529 376.400,151.176 376.400 C 151.823 376.400,152.464 376.580,152.600 376.800 C 152.736 377.020,153.366 377.200,154.000 377.200 C 154.634 377.200,155.264 377.380,155.400 377.600 C 155.536 377.820,156.256 378.000,157.000 378.000 C 157.744 378.000,158.464 378.180,158.600 378.400 C 158.736 378.620,159.366 378.800,160.000 378.800 C 160.634 378.800,161.264 378.980,161.400 379.200 C 161.536 379.420,162.436 379.600,163.400 379.600 C 164.364 379.600,165.264 379.780,165.400 380.000 C 165.536 380.220,166.411 380.400,167.344 380.400 C 168.277 380.400,169.211 380.563,169.420 380.763 C 169.776 381.103,170.941 381.284,176.400 381.844 C 177.610 381.969,178.771 382.235,178.980 382.435 C 179.478 382.913,186.400 382.910,186.400 382.432 C 186.400 382.088,182.422 378.155,173.017 369.200 C 170.822 367.110,168.744 365.130,168.400 364.800 C 165.652 362.166,158.456 355.313,151.600 348.800 C 147.090 344.516,141.690 339.378,139.600 337.383 C 134.375 332.396,127.356 325.708,122.806 321.380 C 120.713 319.389,116.753 315.609,114.007 312.980 C 111.261 310.351,107.216 306.490,105.020 304.400 C 102.823 302.310,100.744 300.330,100.400 300.000 C 97.735 297.446,90.475 290.530,83.600 283.998 C 79.090 279.712,73.870 274.751,72.000 272.971 C 70.130 271.192,68.069 269.262,67.419 268.682 C 66.770 268.103,66.358 267.509,66.503 267.363 C 66.649 267.218,66.485 266.552,66.140 265.884 C 62.651 259.137,74.521 244.694,99.632 225.132 C 107.648 218.888,109.037 218.464,104.578 223.623 C 92.869 237.172,98.304 244.751,117.635 241.831 C 122.417 241.109,136.849 237.722,139.911 236.603 C 140.267 236.473,139.935 235.644,138.817 233.875 C 135.573 228.737,130.095 215.211,130.483 213.293 C 130.547 212.974,132.760 211.776,135.400 210.630 C 150.963 203.874,167.878 190.331,181.817 173.465 C 187.299 166.832,187.523 166.343,183.945 168.824 C 179.168 172.136,170.620 177.126,164.400 180.235 C 149.049 187.906,139.370 189.966,133.124 186.891 C 129.838 185.273,129.831 185.254,131.034 180.725 C 138.096 154.130,158.923 135.227,187.000 129.928 C 192.515 128.888,208.525 129.326,210.219 130.564 C 211.058 131.178,207.774 138.325,203.082 146.100 C 201.655 148.465,200.576 150.400,200.686 150.400 C 201.977 150.400,213.080 140.315,216.870 135.700 C 219.688 132.268,219.255 132.327,224.682 134.640 C 236.447 139.654,246.849 147.979,253.994 158.100 L 255.336 160.000 253.988 161.900 C 250.419 166.933,242.728 174.793,236.200 180.077 C 234.660 181.324,231.600 183.814,229.400 185.610 C 217.129 195.632,211.427 200.031,203.400 205.670 C 195.306 211.356,183.202 219.185,182.468 219.209 C 182.083 219.222,180.141 220.780,180.497 220.791 C 180.957 220.805,194.941 213.580,201.091 210.151 C 211.717 204.227,221.507 198.150,225.591 194.941 C 226.806 193.987,229.060 192.293,230.600 191.178 C 233.790 188.867,234.681 188.211,237.200 186.316 C 238.190 185.571,240.170 184.175,241.600 183.214 C 249.271 178.056,259.650 167.688,263.493 161.344 C 267.905 154.061,266.093 148.660,259.054 148.115 C 253.664 147.697,253.754 146.801,259.300 145.664 C 267.380 144.008,268.685 143.855,275.008 143.828 L 281.416 143.800 284.094 145.118 L 286.771 146.436 291.085 145.639 C 293.458 145.201,297.084 144.718,299.143 144.566 L 302.886 144.290 288.860 130.245 L 274.834 116.200 274.604 113.400 C 274.478 111.860,274.209 109.430,274.006 108.000 C 273.803 106.570,273.433 103.780,273.184 101.800 C 272.935 99.820,272.567 97.336,272.366 96.280 C 272.165 95.224,272.000 93.762,272.000 93.029 C 272.000 91.217,271.481 90.900,267.361 90.188 C 265.402 89.849,260.900 89.039,257.356 88.386 C 253.812 87.734,250.457 87.200,249.899 87.200 C 248.837 87.200,248.055 86.095,248.907 85.797 C 249.178 85.702,251.650 85.331,254.400 84.973 C 257.150 84.615,260.570 84.160,262.000 83.961 C 263.430 83.762,266.130 83.404,268.000 83.165 C 272.351 82.608,271.517 84.507,274.397 68.600 C 275.926 60.154,276.050 59.600,276.414 59.600 C 277.032 59.600,277.600 61.085,277.600 62.700 C 277.600 63.554,277.762 65.231,277.961 66.427 C 278.159 67.622,278.541 70.220,278.809 72.200 C 280.416 84.072,279.658 82.685,285.073 83.654 C 289.320 84.414,291.304 84.775,295.900 85.626 C 297.165 85.860,299.238 86.187,300.507 86.353 C 303.053 86.686,304.258 87.405,302.967 87.820 C 300.806 88.515,300.572 88.745,301.997 88.773 C 303.307 88.798,305.976 91.381,344.602 130.000 C 367.266 152.660,386.032 171.200,386.305 171.200 C 386.577 171.200,386.800 170.750,386.800 170.200 C 386.800 169.650,386.620 169.200,386.400 169.200 C 386.178 169.200,386.000 168.144,386.000 166.833 C 386.000 165.532,385.830 164.407,385.621 164.333 C 385.413 164.260,385.200 163.355,385.148 162.322 C 385.096 161.289,384.906 160.535,384.726 160.645 C 384.547 160.756,384.400 160.127,384.400 159.247 C 384.400 158.367,384.220 157.536,384.000 157.400 C 383.780 157.264,383.600 156.454,383.600 155.600 C 383.600 154.746,383.420 153.936,383.200 153.800 C 382.980 153.664,382.800 152.933,382.800 152.176 C 382.800 151.419,382.620 150.800,382.400 150.800 C 382.180 150.800,382.000 150.181,382.000 149.424 C 382.000 148.667,381.820 147.936,381.600 147.800 C 381.380 147.664,381.200 147.023,381.200 146.376 C 381.200 145.729,381.020 145.200,380.800 145.200 C 380.580 145.200,380.400 144.660,380.400 144.000 C 380.400 143.340,380.220 142.800,380.000 142.800 C 379.780 142.800,379.600 142.260,379.600 141.600 C 379.600 140.940,379.420 140.400,379.200 140.400 C 378.980 140.400,378.800 139.961,378.800 139.424 C 378.800 138.887,378.620 138.336,378.400 138.200 C 378.180 138.064,378.000 137.423,378.000 136.776 C 378.000 136.129,377.820 135.600,377.600 135.600 C 377.380 135.600,377.200 135.060,377.200 134.400 C 377.200 133.740,377.020 133.200,376.800 133.200 C 376.580 133.200,376.400 132.840,376.400 132.400 C 376.400 131.960,376.220 131.600,376.000 131.600 C 375.780 131.600,375.600 131.161,375.600 130.624 C 375.600 130.087,375.420 129.536,375.200 129.400 C 374.980 129.264,374.800 128.803,374.800 128.376 C 374.800 127.949,374.620 127.600,374.400 127.600 C 374.180 127.600,374.000 127.328,374.000 126.995 C 374.000 126.662,373.820 126.032,373.600 125.595 C 373.380 125.158,373.020 124.442,372.800 124.005 C 372.580 123.568,372.400 122.938,372.400 122.605 C 372.400 122.272,372.220 122.000,372.000 122.000 C 371.780 122.000,371.600 121.640,371.600 121.200 C 371.600 120.760,371.420 120.400,371.200 120.400 C 370.980 120.400,370.800 120.040,370.800 119.600 C 370.800 119.160,370.620 118.800,370.400 118.800 C 370.180 118.800,370.000 118.440,370.000 118.000 C 370.000 117.560,369.820 117.200,369.600 117.200 C 369.380 117.200,369.200 116.840,369.200 116.400 C 369.200 115.960,369.020 115.600,368.800 115.600 C 368.580 115.600,368.400 115.240,368.400 114.800 C 368.400 114.360,368.220 114.000,368.000 114.000 C 367.780 114.000,367.600 113.640,367.600 113.200 C 367.600 112.760,367.420 112.400,367.200 112.400 C 366.980 112.400,366.800 112.040,366.800 111.600 C 366.800 111.160,366.620 110.800,366.400 110.800 C 366.180 110.800,366.000 110.480,366.000 110.088 C 366.000 109.697,365.640 109.117,365.200 108.800 C 364.760 108.483,364.400 107.903,364.400 107.512 C 364.400 107.120,364.220 106.800,364.000 106.800 C 363.780 106.800,363.600 106.522,363.600 106.183 C 363.600 105.844,363.240 105.180,362.800 104.708 C 362.360 104.236,362.000 103.613,362.000 103.325 C 362.000 103.036,361.820 102.800,361.600 102.800 C 361.380 102.800,361.200 102.480,361.200 102.088 C 361.200 101.697,360.840 101.117,360.400 100.800 C 359.960 100.483,359.600 99.903,359.600 99.512 C 359.600 99.120,359.450 98.800,359.268 98.800 C 359.085 98.800,358.681 98.305,358.370 97.700 C 358.060 97.095,357.533 96.330,357.200 96.000 C 356.867 95.670,356.340 94.905,356.030 94.300 C 355.719 93.695,355.315 93.200,355.132 93.200 C 354.950 93.200,354.800 92.912,354.800 92.560 C 354.800 92.209,354.260 91.417,353.600 90.800 C 352.940 90.183,352.400 89.463,352.400 89.200 C 352.400 88.937,351.860 88.217,351.200 87.600 C 350.540 86.983,350.000 86.303,350.000 86.088 C 350.000 85.873,349.280 84.955,348.400 84.048 C 347.520 83.141,346.800 82.220,346.800 82.002 C 346.800 81.784,345.720 80.508,344.400 79.168 C 343.080 77.827,342.000 76.573,342.000 76.381 C 342.000 75.869,327.299 61.200,326.785 61.200 C 326.545 61.200,325.471 60.300,324.400 59.200 C 323.329 58.100,322.292 57.200,322.097 57.200 C 321.901 57.200,320.778 56.300,319.600 55.200 C 318.422 54.100,317.309 53.200,317.126 53.200 C 316.943 53.200,316.228 52.660,315.537 52.000 C 314.846 51.340,314.078 50.800,313.829 50.800 C 313.580 50.800,313.117 50.440,312.800 50.000 C 312.483 49.560,312.020 49.200,311.771 49.200 C 311.522 49.200,310.754 48.660,310.063 48.000 C 309.372 47.340,308.575 46.800,308.292 46.800 C 308.009 46.800,307.517 46.440,307.200 46.000 C 306.883 45.560,306.343 45.200,306.000 45.200 C 305.657 45.200,305.117 44.840,304.800 44.400 C 304.483 43.960,303.903 43.600,303.512 43.600 C 303.120 43.600,302.800 43.420,302.800 43.200 C 302.800 42.980,302.564 42.800,302.275 42.800 C 301.987 42.800,301.364 42.440,300.892 42.000 C 300.420 41.560,299.796 41.200,299.505 41.200 C 299.214 41.200,298.717 40.840,298.400 40.400 C 298.083 39.960,297.503 39.600,297.112 39.600 C 296.720 39.600,296.400 39.420,296.400 39.200 C 296.400 38.980,296.040 38.800,295.600 38.800 C 295.160 38.800,294.800 38.620,294.800 38.400 C 294.800 38.180,294.440 38.000,294.000 38.000 C 293.560 38.000,293.200 37.820,293.200 37.600 C 293.200 37.380,292.880 37.200,292.488 37.200 C 292.097 37.200,291.517 36.840,291.200 36.400 C 290.883 35.960,290.303 35.600,289.912 35.600 C 289.520 35.600,289.200 35.420,289.200 35.200 C 289.200 34.980,288.840 34.800,288.400 34.800 C 287.960 34.800,287.600 34.620,287.600 34.400 C 287.600 34.180,287.240 34.000,286.800 34.000 C 286.360 34.000,286.000 33.820,286.000 33.600 C 286.000 33.380,285.735 33.200,285.412 33.200 C 285.089 33.200,284.183 32.840,283.400 32.400 C 282.617 31.960,281.621 31.600,281.188 31.600 C 280.755 31.600,280.400 31.420,280.400 31.200 C 280.400 30.980,280.040 30.800,279.600 30.800 C 279.160 30.800,278.800 30.620,278.800 30.400 C 278.800 30.180,278.440 30.000,278.000 30.000 C 277.560 30.000,277.200 29.820,277.200 29.600 C 277.200 29.380,276.838 29.200,276.395 29.200 C 275.952 29.200,275.277 29.041,274.895 28.847 C 274.513 28.652,273.705 28.292,273.100 28.047 C 272.495 27.801,271.505 27.399,270.900 27.153 C 270.295 26.908,269.487 26.548,269.105 26.353 C 268.723 26.159,268.048 26.000,267.605 26.000 C 267.162 26.000,266.800 25.820,266.800 25.600 C 266.800 25.380,266.361 25.200,265.824 25.200 C 265.287 25.200,264.736 25.020,264.600 24.800 C 264.464 24.580,263.823 24.400,263.176 24.400 C 262.529 24.400,262.000 24.220,262.000 24.000 C 262.000 23.780,261.460 23.600,260.800 23.600 C 260.140 23.600,259.600 23.420,259.600 23.200 C 259.600 22.980,259.060 22.800,258.400 22.800 C 257.740 22.800,257.200 22.620,257.200 22.400 C 257.200 22.180,256.480 22.000,255.600 22.000 C 254.720 22.000,254.000 21.820,254.000 21.600 C 254.000 21.380,253.471 21.200,252.824 21.200 C 252.177 21.200,251.536 21.020,251.400 20.800 C 251.264 20.580,250.533 20.400,249.776 20.400 C 249.019 20.400,248.400 20.220,248.400 20.000 C 248.400 19.780,247.601 19.600,246.624 19.600 C 245.647 19.600,244.736 19.420,244.600 19.200 C 244.464 18.980,243.654 18.800,242.800 18.800 C 241.946 18.800,241.136 18.620,241.000 18.400 C 240.864 18.180,239.874 18.000,238.800 18.000 C 237.726 18.000,236.736 17.820,236.600 17.600 C 236.464 17.380,235.294 17.200,234.000 17.200 C 232.706 17.200,231.536 17.020,231.400 16.800 C 231.264 16.580,229.993 16.400,228.576 16.400 C 227.125 16.400,226.000 16.225,226.000 16.000 C 226.000 15.771,224.800 15.600,223.200 15.600 C 221.563 15.600,220.400 15.431,220.400 15.192 C 220.400 14.651,188.124 14.676,187.789 15.217 " stroke="none" fill="#04b1e8" fill-rule="evenodd"></path><path id="path3" d="M275.663 61.700 C 275.446 62.855,274.910 65.780,274.471 68.200 C 271.496 84.592,272.354 82.608,268.000 83.165 C 266.130 83.404,263.430 83.762,262.000 83.961 C 260.570 84.160,257.150 84.615,254.400 84.973 C 248.507 85.740,248.343 85.786,248.650 86.585 C 248.805 86.990,249.383 87.191,250.343 87.175 C 251.733 87.150,251.754 87.130,250.800 86.733 C 249.488 86.186,250.552 85.670,253.080 85.628 C 254.004 85.613,255.624 85.433,256.680 85.229 C 257.736 85.025,261.609 84.450,265.287 83.952 C 270.095 83.301,272.035 82.885,272.194 82.472 C 272.417 81.890,273.250 77.779,274.032 73.400 C 274.268 72.080,274.616 70.190,274.806 69.200 C 274.996 68.210,275.364 66.140,275.623 64.600 C 275.882 63.060,276.192 61.530,276.313 61.200 C 276.545 60.563,277.242 64.261,278.009 70.200 C 278.264 72.180,278.625 74.700,278.811 75.800 C 278.996 76.900,279.257 78.792,279.391 80.003 C 279.760 83.357,279.250 83.128,291.000 85.226 C 292.320 85.462,294.155 85.822,295.077 86.027 C 296.000 86.232,297.260 86.384,297.877 86.364 L 299.000 86.328 297.800 86.018 C 297.140 85.848,295.340 85.488,293.800 85.218 C 292.260 84.948,289.226 84.384,287.057 83.964 C 284.888 83.544,282.728 83.197,282.257 83.194 C 280.333 83.180,280.267 82.971,278.809 72.200 C 278.541 70.220,278.159 67.622,277.961 66.427 C 277.762 65.231,277.600 63.554,277.600 62.700 C 277.600 59.333,276.239 58.630,275.663 61.700 M300.800 86.958 C 302.803 87.492,302.289 88.000,299.744 88.000 C 298.446 88.000,295.656 88.356,290.400 89.194 C 289.190 89.387,286.333 89.777,284.051 90.060 C 279.184 90.666,279.640 90.088,278.406 97.200 C 277.233 103.953,276.803 106.294,276.368 108.277 C 276.166 109.200,276.000 110.494,276.000 111.154 C 276.000 111.813,275.844 112.449,275.653 112.567 C 275.321 112.772,275.162 112.010,274.408 106.600 C 274.224 105.280,273.787 102.220,273.436 99.800 C 273.086 97.380,272.692 94.590,272.560 93.600 C 272.244 91.223,271.761 90.399,270.686 90.406 C 269.830 90.412,269.834 90.429,270.800 90.917 C 271.619 91.331,271.848 91.818,272.067 93.611 C 272.214 94.815,272.535 97.240,272.780 99.000 C 273.706 105.638,274.103 108.672,274.348 110.995 C 274.536 112.783,274.769 113.423,275.266 113.518 C 276.114 113.680,276.023 114.040,278.200 102.000 C 279.214 96.390,280.176 91.667,280.338 91.504 C 280.619 91.221,284.658 90.578,297.112 88.833 C 300.254 88.392,303.026 87.908,303.273 87.755 C 304.075 87.259,302.340 86.398,300.624 86.439 L 299.000 86.479 300.800 86.958 M252.200 87.411 C 252.882 87.664,268.294 90.400,269.034 90.400 C 271.021 90.400,269.024 89.969,256.800 87.758 C 254.069 87.264,251.223 87.050,252.200 87.411 M280.239 114.294 C 279.758 114.776,280.020 115.200,280.800 115.200 C 281.240 115.200,281.600 115.039,281.600 114.843 C 281.600 114.393,280.560 113.974,280.239 114.294 M190.800 129.426 C 190.250 129.523,188.450 129.804,186.800 130.051 C 160.426 133.996,138.041 154.337,131.034 180.725 C 129.831 185.254,129.838 185.273,133.124 186.891 C 141.466 190.998,159.602 184.779,181.900 170.167 C 187.020 166.811,187.187 166.827,184.326 170.406 C 169.338 189.151,151.950 203.446,135.400 210.630 C 132.760 211.776,130.547 212.974,130.483 213.293 C 130.095 215.211,135.573 228.737,138.817 233.875 C 139.935 235.644,140.267 236.473,139.911 236.603 C 136.849 237.722,122.417 241.109,117.635 241.831 C 98.304 244.751,92.869 237.172,104.578 223.623 C 109.037 218.464,107.648 218.888,99.632 225.132 C 70.547 247.790,59.720 262.965,68.686 268.508 C 76.270 273.197,97.882 269.565,126.400 258.809 C 134.352 255.810,138.474 254.142,147.400 250.310 C 157.999 245.759,174.481 237.765,186.600 231.296 C 196.715 225.898,198.100 225.137,201.093 223.339 C 202.684 222.382,204.097 221.600,204.231 221.600 C 204.366 221.600,204.954 221.267,205.538 220.861 C 206.122 220.455,207.590 219.581,208.800 218.920 C 211.694 217.339,219.836 212.400,222.861 210.391 C 224.179 209.516,225.339 208.800,225.439 208.800 C 226.098 208.800,244.314 196.284,251.515 190.883 C 253.998 189.021,256.134 187.600,256.260 187.727 C 256.550 188.017,247.327 197.266,242.800 201.226 C 240.930 202.862,239.310 204.305,239.200 204.434 C 235.594 208.654,210.189 226.182,197.800 232.998 C 196.260 233.845,194.370 234.893,193.600 235.325 C 173.984 246.350,122.712 268.800,117.150 268.800 C 116.299 268.800,115.413 269.837,115.970 270.181 C 116.328 270.403,123.452 269.573,126.351 268.972 C 137.021 266.761,148.650 263.200,161.072 258.340 L 163.144 257.530 165.672 258.935 C 180.337 267.090,201.664 269.093,218.000 263.851 C 239.904 256.822,256.107 240.835,263.363 219.094 C 264.153 216.726,264.786 214.386,264.768 213.894 C 264.732 212.873,264.574 213.268,263.602 216.800 C 255.630 245.763,228.272 266.375,197.800 266.375 C 186.023 266.375,172.530 262.858,164.155 257.606 C 163.410 257.139,162.586 257.339,157.155 259.305 C 144.443 263.907,135.983 266.467,128.600 267.945 C 118.044 270.058,115.120 270.126,121.200 268.118 C 129.736 265.298,146.057 258.810,156.100 254.245 C 165.655 249.902,169.854 247.905,177.800 243.922 C 203.959 230.811,217.207 222.583,234.600 208.642 C 246.811 198.855,258.863 186.800,256.437 186.800 C 256.237 186.800,255.112 187.578,253.937 188.530 C 248.451 192.972,231.852 204.367,222.400 210.181 C 220.310 211.466,217.520 213.187,216.200 214.005 C 199.104 224.602,173.239 238.211,152.400 247.572 C 149.870 248.709,147.440 249.806,147.000 250.010 C 144.627 251.113,134.689 255.200,134.382 255.200 C 134.184 255.200,133.252 255.551,132.311 255.979 C 123.941 259.791,105.986 265.504,94.800 267.915 C 55.757 276.329,56.695 259.211,97.000 227.752 C 105.505 221.114,107.006 220.189,104.356 223.217 C 98.791 229.575,96.676 235.760,98.911 239.138 C 102.249 244.181,113.016 244.239,131.600 239.315 C 132.810 238.994,135.301 238.361,137.135 237.908 C 141.033 236.944,141.264 236.621,139.690 234.322 C 137.182 230.659,133.843 223.479,132.378 218.600 C 132.114 217.720,131.741 216.587,131.549 216.081 C 130.665 213.752,131.044 212.954,133.500 211.984 C 149.726 205.573,167.118 191.788,182.955 172.786 C 188.790 165.786,188.847 165.003,183.247 168.769 C 158.891 185.145,137.779 191.720,130.921 185.065 C 130.439 184.596,131.240 180.979,132.971 175.800 C 142.939 145.996,174.130 126.331,205.523 130.060 C 211.091 130.722,210.919 129.987,207.279 137.600 C 206.009 140.257,202.758 145.954,201.161 148.320 C 200.073 149.931,199.674 151.200,200.254 151.200 C 201.585 151.200,212.161 141.795,217.225 136.108 L 219.800 133.216 222.000 134.012 C 230.673 137.151,240.944 143.981,247.485 150.960 C 250.916 154.621,254.392 159.170,254.392 160.000 C 254.392 161.995,243.246 173.851,235.600 179.990 C 233.290 181.845,231.310 183.467,231.200 183.596 C 230.640 184.249,214.289 197.161,209.600 200.652 C 201.092 206.986,188.727 215.135,179.691 220.363 C 178.091 221.289,176.876 222.199,176.991 222.386 C 177.414 223.070,178.701 222.474,193.800 214.604 C 196.440 213.228,199.320 211.692,200.200 211.192 C 201.080 210.692,202.790 209.737,204.000 209.071 C 206.082 207.925,214.467 202.934,220.600 199.191 C 225.641 196.114,229.705 193.301,237.597 187.426 C 246.476 180.816,255.569 172.458,260.469 166.400 C 268.989 155.869,268.179 148.484,258.378 147.323 C 255.618 146.996,256.225 146.687,261.600 145.684 C 274.334 143.308,281.654 143.546,285.599 146.463 C 286.420 147.069,286.879 147.161,287.630 146.869 C 288.163 146.661,289.680 146.298,291.000 146.062 C 323.050 140.335,321.556 156.672,287.438 185.013 C 282.183 189.379,270.584 198.227,266.654 200.869 C 266.434 201.017,266.035 202.997,265.768 205.269 C 265.501 207.541,265.149 210.210,264.985 211.200 C 264.822 212.190,264.808 212.890,264.954 212.757 C 265.344 212.400,266.385 205.711,266.393 203.513 C 266.400 201.681,266.467 201.576,268.700 199.934 C 285.467 187.596,291.334 182.738,300.222 173.833 C 322.081 151.932,318.401 140.290,291.285 145.559 L 286.771 146.436 284.094 145.118 L 281.416 143.800 275.008 143.828 C 268.685 143.855,267.380 144.008,259.300 145.664 C 253.754 146.801,253.664 147.697,259.054 148.115 C 276.726 149.483,258.837 174.022,223.800 196.476 C 209.876 205.399,182.365 220.847,180.497 220.791 C 180.141 220.780,182.083 219.222,182.468 219.209 C 183.202 219.185,195.306 211.356,203.400 205.670 C 211.427 200.031,217.129 195.632,229.400 185.610 C 231.600 183.814,234.660 181.324,236.200 180.077 C 242.728 174.793,250.419 166.933,253.988 161.900 L 255.336 160.000 253.994 158.100 C 246.849 147.979,236.447 139.654,224.682 134.640 C 219.255 132.327,219.688 132.268,216.870 135.700 C 213.080 140.315,201.977 150.400,200.686 150.400 C 200.576 150.400,201.655 148.465,203.082 146.100 C 206.778 139.976,210.997 131.237,210.499 130.739 C 209.526 129.766,194.549 128.768,190.800 129.426 M287.413 152.671 C 286.821 155.830,284.118 160.387,280.025 165.133 C 276.676 169.015,267.016 178.355,265.352 179.320 C 264.510 179.808,264.686 180.971,265.924 183.082 C 266.543 184.137,267.167 185.315,267.312 185.700 C 267.827 187.071,269.108 186.341,274.024 181.874 C 289.830 167.511,295.548 156.880,290.037 152.100 C 288.505 150.771,287.738 150.938,287.413 152.671 M290.094 152.768 C 295.000 157.155,288.409 168.424,272.682 182.538 C 268.141 186.613,268.390 186.592,266.476 183.070 L 265.002 180.356 267.801 177.923 C 278.534 168.593,288.000 156.666,288.000 152.471 C 288.000 151.299,288.535 151.375,290.094 152.768 " stroke="none" fill="#5ebedc" fill-rule="evenodd"></path><path id="path4" d="M296.000 89.048 C 293.910 89.350,289.590 89.969,286.400 90.425 C 283.210 90.882,280.486 91.377,280.347 91.527 C 280.126 91.765,279.368 95.528,277.997 103.200 C 277.780 104.410,277.333 106.787,277.002 108.483 C 276.671 110.179,276.400 111.938,276.400 112.393 C 276.400 112.895,276.027 113.362,275.450 113.581 C 273.309 114.395,274.244 115.554,288.895 130.253 L 302.903 144.307 305.567 144.569 C 310.245 145.030,314.314 147.719,314.447 150.438 C 314.489 151.289,314.530 151.261,314.800 150.200 C 314.968 149.540,315.127 149.239,315.153 149.532 C 315.179 149.824,317.762 152.704,320.893 155.932 C 346.826 182.664,383.652 220.438,385.950 222.664 C 387.321 223.992,387.600 223.541,387.600 220.000 C 387.600 218.266,387.776 216.738,387.991 216.605 C 388.236 216.454,388.382 209.947,388.382 199.182 C 388.382 188.251,388.240 182.000,387.991 182.000 C 387.769 182.000,387.600 180.627,387.600 178.824 C 387.600 177.077,387.420 175.536,387.200 175.400 C 386.980 175.264,386.800 174.263,386.800 173.176 C 386.800 171.872,386.632 171.200,386.305 171.200 C 386.032 171.200,367.267 152.681,344.605 130.046 C 297.550 83.050,303.398 87.982,296.000 89.048 M281.400 114.800 C 281.400 115.124,281.085 115.450,280.700 115.524 C 280.209 115.618,280.000 115.402,280.000 114.800 C 280.000 114.198,280.209 113.982,280.700 114.076 C 281.085 114.150,281.400 114.476,281.400 114.800 M290.034 153.047 C 290.565 153.733,291.080 154.223,291.179 154.135 C 291.277 154.047,290.843 153.486,290.213 152.888 L 289.069 151.800 290.034 153.047 M314.454 153.467 C 314.425 153.944,314.296 154.664,314.170 155.067 C 313.952 155.761,313.964 155.762,314.396 155.088 C 314.647 154.697,314.775 153.977,314.681 153.488 C 314.509 152.601,314.509 152.601,314.454 153.467 M286.910 155.609 C 286.447 156.704,286.153 157.600,286.257 157.600 C 286.527 157.600,288.098 153.965,287.909 153.776 C 287.822 153.689,287.373 154.514,286.910 155.609 M291.320 156.800 C 291.320 158.010,291.395 158.505,291.487 157.900 C 291.578 157.295,291.578 156.305,291.487 155.700 C 291.395 155.095,291.320 155.590,291.320 156.800 M311.800 160.000 C 311.459 160.660,311.269 161.200,311.379 161.200 C 311.489 161.200,311.859 160.660,312.200 160.000 C 312.541 159.340,312.731 158.800,312.621 158.800 C 312.511 158.800,312.141 159.340,311.800 160.000 M309.190 163.900 C 308.252 165.165,307.105 166.661,306.642 167.224 C 306.179 167.787,306.430 167.586,307.200 166.778 C 308.649 165.257,311.384 161.600,311.073 161.600 C 310.976 161.600,310.128 162.635,309.190 163.900 M280.427 165.309 C 278.955 166.996,278.741 167.348,279.762 166.400 C 281.104 165.154,283.060 162.785,282.727 162.809 C 282.657 162.814,281.622 163.939,280.427 165.309 M287.517 166.057 C 286.482 167.580,285.808 168.719,286.019 168.588 C 286.518 168.280,289.714 163.577,289.536 163.414 C 289.461 163.345,288.553 164.535,287.517 166.057 M274.592 171.700 L 271.000 175.400 274.700 171.808 C 278.136 168.472,278.582 168.000,278.292 168.000 C 278.232 168.000,276.567 169.665,274.592 171.700 M300.008 174.200 L 295.015 179.400 300.190 174.316 C 303.036 171.519,305.283 169.179,305.182 169.116 C 305.082 169.052,302.753 171.340,300.008 174.200 M281.785 173.300 L 279.800 175.400 281.900 173.415 C 283.851 171.571,284.183 171.200,283.885 171.200 C 283.822 171.200,282.877 172.145,281.785 173.300 M267.900 177.719 C 265.005 180.379,264.876 180.632,265.807 181.824 C 266.368 182.542,266.378 182.517,265.937 181.489 C 265.479 180.419,265.564 180.282,268.231 177.808 C 269.754 176.394,270.910 175.238,270.800 175.238 C 270.690 175.237,269.385 176.354,267.900 177.719 M274.185 180.900 L 272.200 183.000 274.392 181.000 C 275.597 179.900,276.662 178.955,276.758 178.900 C 276.855 178.845,276.762 178.800,276.552 178.800 C 276.342 178.800,275.277 179.745,274.185 180.900 M291.200 182.459 L 288.600 184.891 291.102 182.804 C 293.309 180.963,294.312 179.972,293.924 180.013 C 293.856 180.021,292.630 181.121,291.200 182.459 M241.400 183.287 C 240.349 184.041,237.598 186.049,234.400 188.396 C 233.850 188.800,232.590 189.738,231.600 190.481 C 230.610 191.225,228.990 192.404,228.000 193.102 C 225.881 194.596,223.942 196.205,224.800 195.756 C 228.717 193.709,244.062 182.301,242.749 182.413 C 242.667 182.420,242.060 182.813,241.400 183.287 M270.378 184.300 L 269.000 185.800 270.500 184.422 C 271.896 183.138,272.184 182.800,271.878 182.800 C 271.812 182.800,271.137 183.475,270.378 184.300 M267.400 184.800 C 267.741 185.460,268.111 186.000,268.221 186.000 C 268.331 186.000,268.141 185.460,267.800 184.800 C 267.459 184.140,267.089 183.600,266.979 183.600 C 266.869 183.600,267.059 184.140,267.400 184.800 M283.885 188.361 C 280.224 191.338,276.863 194.332,279.400 192.356 C 285.198 187.839,288.964 184.653,288.300 184.826 C 288.245 184.840,286.258 186.431,283.885 188.361 M253.700 189.225 C 252.545 190.111,251.600 190.933,251.600 191.052 C 251.600 191.170,252.320 190.697,253.200 190.000 C 254.080 189.303,254.800 188.955,254.800 189.228 C 254.800 189.500,255.160 189.307,255.600 188.800 C 257.166 186.995,256.376 187.171,253.700 189.225 M250.400 193.800 C 248.761 195.450,247.510 196.800,247.620 196.800 C 247.730 196.800,249.161 195.450,250.800 193.800 C 252.439 192.150,253.690 190.800,253.580 190.800 C 253.470 190.800,252.039 192.150,250.400 193.800 M247.200 194.036 C 242.203 197.726,240.941 198.735,242.800 197.555 C 244.720 196.336,251.200 191.557,251.200 191.360 C 251.200 191.089,251.108 191.151,247.200 194.036 M276.785 194.029 L 275.400 195.258 276.900 194.181 C 278.226 193.230,278.657 192.800,278.285 192.800 C 278.222 192.800,277.547 193.353,276.785 194.029 M273.585 196.429 L 272.200 197.658 273.700 196.581 C 275.026 195.630,275.457 195.200,275.085 195.200 C 275.022 195.200,274.347 195.753,273.585 196.429 M270.100 198.840 C 269.165 199.502,268.400 200.133,268.400 200.241 C 268.400 200.350,269.210 199.881,270.200 199.200 C 271.190 198.519,272.000 197.880,272.000 197.781 C 272.000 197.505,271.924 197.548,270.100 198.840 M243.983 199.900 L 242.200 201.800 244.193 200.000 C 245.288 199.010,246.263 198.155,246.359 198.100 C 246.455 198.045,246.361 198.000,246.150 198.000 C 245.939 198.000,244.964 198.855,243.983 199.900 M237.846 200.596 C 236.772 201.339,235.692 202.165,235.446 202.430 C 235.201 202.695,236.125 202.161,237.500 201.241 C 238.875 200.322,240.000 199.487,240.000 199.385 C 240.000 199.111,239.963 199.132,237.846 200.596 M267.038 201.158 C 266.533 201.716,266.393 202.426,266.504 203.858 L 266.656 205.800 266.728 203.831 C 266.771 202.649,267.064 201.571,267.462 201.131 C 267.826 200.729,268.034 200.400,267.924 200.400 C 267.814 200.400,267.415 200.741,267.038 201.158 M240.575 202.900 L 239.400 204.200 240.700 203.025 C 241.415 202.379,242.000 201.794,242.000 201.725 C 242.000 201.416,241.670 201.688,240.575 202.900 M231.796 204.652 C 228.960 206.531,227.201 207.964,229.400 206.605 C 233.047 204.350,235.204 202.800,234.696 202.800 C 234.638 202.800,233.333 203.633,231.796 204.652 M236.600 206.249 L 234.600 208.081 236.800 206.360 C 238.010 205.413,239.075 204.585,239.167 204.519 C 239.258 204.454,239.168 204.404,238.967 204.408 C 238.765 204.413,237.700 205.241,236.600 206.249 M265.833 208.433 C 265.683 209.566,265.641 210.574,265.739 210.672 C 265.837 210.771,266.045 209.928,266.200 208.800 C 266.355 207.672,266.398 206.664,266.294 206.561 C 266.191 206.458,265.984 207.300,265.833 208.433 M229.160 211.930 C 226.387 214.059,223.597 216.215,222.960 216.722 L 221.800 217.644 223.200 216.745 C 226.438 214.664,235.172 207.822,234.324 208.030 C 234.256 208.047,231.932 209.802,229.160 211.930 M223.088 210.184 C 222.036 210.903,221.046 211.637,220.888 211.815 C 220.504 212.247,223.545 210.447,224.754 209.526 C 226.355 208.307,225.122 208.794,223.088 210.184 M265.000 212.800 C 264.848 213.491,264.807 214.141,264.909 214.242 C 265.011 214.344,265.209 213.853,265.350 213.150 C 265.491 212.447,265.531 211.798,265.441 211.708 C 265.350 211.617,265.152 212.109,265.000 212.800 M214.491 215.557 C 211.329 217.483,210.725 218.095,213.501 216.561 C 215.531 215.439,217.610 214.012,217.200 214.023 C 217.090 214.026,215.871 214.716,214.491 215.557 M215.050 222.021 C 209.239 225.997,207.235 227.464,208.800 226.595 C 211.622 225.029,222.595 217.304,221.524 217.639 C 221.456 217.660,218.543 219.632,215.050 222.021 M207.325 219.731 C 204.580 221.410,204.060 222.023,206.600 220.585 C 209.215 219.105,210.270 218.393,209.789 218.431 C 209.575 218.447,208.466 219.032,207.325 219.731 M262.444 221.644 C 262.198 222.351,262.066 223.000,262.152 223.085 C 262.238 223.171,262.509 222.662,262.756 221.956 C 263.002 221.249,263.134 220.600,263.048 220.515 C 262.962 220.429,262.691 220.938,262.444 221.644 M200.900 223.426 C 199.965 223.987,199.200 224.540,199.200 224.655 C 199.200 224.871,201.899 223.338,202.580 222.736 C 203.267 222.128,202.627 222.391,200.900 223.426 M261.265 224.617 C 260.595 226.088,260.723 226.402,261.447 225.065 C 261.786 224.440,261.988 223.854,261.896 223.763 C 261.805 223.671,261.521 224.056,261.265 224.617 M196.300 226.027 C 195.475 226.463,194.800 226.908,194.800 227.018 C 194.800 227.127,195.520 226.849,196.400 226.400 C 197.280 225.951,198.000 225.497,198.000 225.392 C 198.000 225.130,197.997 225.131,196.300 226.027 M259.283 229.013 C 258.582 230.436,258.093 231.600,258.198 231.600 C 258.466 231.600,260.885 226.751,260.706 226.572 C 260.625 226.492,259.985 227.590,259.283 229.013 M192.311 228.160 C 190.216 229.405,189.884 229.863,191.800 228.865 C 193.805 227.820,194.719 227.203,194.200 227.244 C 193.980 227.261,193.130 227.674,192.311 228.160 M201.096 230.758 C 198.660 232.187,198.119 232.744,200.200 231.680 C 201.745 230.891,203.610 229.618,203.200 229.633 C 203.090 229.637,202.143 230.143,201.096 230.758 M185.484 231.864 C 183.550 232.874,182.028 233.761,182.102 233.836 C 182.267 234.001,189.200 230.428,189.200 230.178 C 189.200 229.916,189.284 229.878,185.484 231.864 M195.500 233.877 C 194.456 234.458,193.663 234.997,193.740 235.073 C 193.900 235.234,197.600 233.214,197.600 232.966 C 197.600 232.715,197.543 232.740,195.500 233.877 M255.942 234.900 C 255.204 236.054,253.734 238.169,252.676 239.600 C 251.618 241.030,251.319 241.570,252.011 240.800 C 253.683 238.942,257.871 232.800,257.465 232.800 C 257.365 232.800,256.680 233.745,255.942 234.900 M180.000 234.800 C 179.230 235.222,178.744 235.574,178.920 235.583 C 179.344 235.605,181.600 234.432,181.600 234.190 C 181.600 233.928,181.577 233.937,180.000 234.800 M190.700 236.426 C 189.435 237.079,188.400 237.703,188.400 237.812 C 188.400 237.922,189.480 237.466,190.800 236.800 C 192.120 236.134,193.200 235.501,193.200 235.394 C 193.200 235.128,193.274 235.097,190.700 236.426 M176.700 236.427 C 175.875 236.863,175.200 237.308,175.200 237.418 C 175.200 237.527,175.920 237.249,176.800 236.800 C 177.680 236.351,178.400 235.897,178.400 235.792 C 178.400 235.530,178.397 235.531,176.700 236.427 M170.639 239.423 C 166.908 241.273,165.618 242.093,168.000 241.101 C 170.128 240.215,175.054 237.638,174.600 237.648 C 174.380 237.653,172.598 238.452,170.639 239.423 M176.800 243.600 C 173.830 245.117,171.538 246.368,171.706 246.379 C 172.131 246.408,182.400 241.240,182.400 240.997 C 182.400 240.723,182.757 240.557,176.800 243.600 M249.178 243.900 L 247.800 245.400 249.300 244.022 C 250.696 242.738,250.984 242.400,250.678 242.400 C 250.612 242.400,249.937 243.075,249.178 243.900 M160.400 244.400 C 159.190 245.039,158.380 245.562,158.600 245.562 C 158.820 245.562,159.990 245.039,161.200 244.400 C 162.410 243.761,163.220 243.238,163.000 243.238 C 162.780 243.238,161.610 243.761,160.400 244.400 M154.800 247.000 C 154.250 247.314,153.980 247.572,154.200 247.572 C 154.420 247.572,155.050 247.314,155.600 247.000 C 156.150 246.686,156.420 246.428,156.200 246.428 C 155.980 246.428,155.350 246.686,154.800 247.000 M164.800 249.400 C 163.810 249.930,163.180 250.364,163.400 250.364 C 163.620 250.364,164.610 249.930,165.600 249.400 C 166.590 248.870,167.220 248.436,167.000 248.436 C 166.780 248.436,165.790 248.870,164.800 249.400 M242.975 250.100 L 241.800 251.400 243.100 250.225 C 243.815 249.579,244.400 248.994,244.400 248.925 C 244.400 248.616,244.070 248.888,242.975 250.100 M147.200 250.400 C 146.430 250.822,145.980 251.166,146.200 251.166 C 146.420 251.166,147.230 250.822,148.000 250.400 C 148.770 249.978,149.220 249.634,149.000 249.634 C 148.780 249.634,147.970 249.978,147.200 250.400 M141.680 252.675 C 139.854 253.455,138.426 254.160,138.507 254.241 C 138.651 254.385,145.217 251.716,145.559 251.374 C 145.985 250.948,144.761 251.358,141.680 252.675 M159.200 252.000 C 158.430 252.422,157.980 252.766,158.200 252.766 C 158.420 252.766,159.230 252.422,160.000 252.000 C 160.770 251.578,161.220 251.234,161.000 251.234 C 160.780 251.234,159.970 251.578,159.200 252.000 M237.700 254.040 C 236.765 254.702,236.000 255.333,236.000 255.441 C 236.000 255.550,236.810 255.081,237.800 254.400 C 238.790 253.719,239.600 253.080,239.600 252.981 C 239.600 252.705,239.524 252.748,237.700 254.040 M155.200 253.800 C 154.650 254.114,154.380 254.372,154.600 254.372 C 154.820 254.372,155.450 254.114,156.000 253.800 C 156.550 253.486,156.820 253.228,156.600 253.228 C 156.380 253.228,155.750 253.486,155.200 253.800 M151.600 255.400 C 151.050 255.714,150.780 255.972,151.000 255.972 C 151.220 255.972,151.850 255.714,152.400 255.400 C 152.950 255.086,153.220 254.828,153.000 254.828 C 152.780 254.828,152.150 255.086,151.600 255.400 M234.100 256.446 C 232.737 257.319,232.295 257.906,233.500 257.243 C 234.418 256.739,235.856 255.627,235.600 255.619 C 235.490 255.616,234.815 255.988,234.100 256.446 M147.400 257.200 C 146.080 257.826,145.180 258.344,145.400 258.350 C 145.620 258.356,146.880 257.845,148.200 257.215 C 149.520 256.584,150.420 256.067,150.200 256.065 C 149.980 256.063,148.720 256.574,147.400 257.200 M127.400 258.429 C 126.520 258.852,126.238 259.086,126.774 258.949 C 128.239 258.573,130.286 257.629,129.600 257.645 C 129.270 257.653,128.280 258.006,127.400 258.429 M162.000 258.032 C 161.527 258.363,161.587 258.400,162.280 258.206 C 162.773 258.067,163.697 258.237,164.380 258.590 C 165.051 258.937,165.600 259.131,165.600 259.021 C 165.600 258.218,162.824 257.456,162.000 258.032 M231.100 258.229 C 229.605 259.040,229.696 259.378,231.200 258.600 C 231.860 258.259,232.400 257.894,232.400 257.790 C 232.400 257.532,232.357 257.547,231.100 258.229 M169.200 260.915 C 169.200 261.191,174.459 263.274,174.657 263.076 C 174.744 262.989,173.868 262.548,172.708 262.097 C 171.549 261.647,170.285 261.151,169.900 260.996 C 169.515 260.841,169.200 260.805,169.200 260.915 M223.400 261.872 C 220.843 262.941,219.950 263.498,221.600 262.994 C 223.006 262.566,226.684 260.865,226.200 260.868 C 225.980 260.869,224.720 261.321,223.400 261.872 M118.200 261.814 C 117.200 262.296,117.166 262.351,118.000 262.148 C 119.133 261.871,120.407 261.221,119.800 261.230 C 119.580 261.233,118.860 261.496,118.200 261.814 M151.800 261.814 C 150.800 262.296,150.766 262.351,151.600 262.148 C 152.733 261.871,154.007 261.221,153.400 261.230 C 153.180 261.233,152.460 261.496,151.800 261.814 M109.066 264.674 C 108.003 265.000,107.209 265.342,107.303 265.436 C 107.396 265.530,108.537 265.263,109.836 264.843 C 111.136 264.423,111.930 264.081,111.600 264.082 C 111.270 264.083,110.130 264.349,109.066 264.674 M128.475 264.673 C 127.526 265.009,126.821 265.354,126.907 265.441 C 127.090 265.623,130.800 264.405,130.800 264.162 C 130.800 263.912,130.345 264.012,128.475 264.673 M143.200 264.600 C 142.430 264.897,142.070 265.139,142.400 265.139 C 142.730 265.139,143.630 264.897,144.400 264.600 C 145.170 264.303,145.530 264.061,145.200 264.061 C 144.870 264.061,143.970 264.303,143.200 264.600 M178.200 264.400 C 178.640 264.589,179.270 264.744,179.600 264.744 C 179.978 264.744,179.904 264.617,179.400 264.400 C 178.960 264.211,178.330 264.056,178.000 264.056 C 177.622 264.056,177.696 264.183,178.200 264.400 M216.200 264.400 C 215.696 264.617,215.622 264.744,216.000 264.744 C 216.330 264.744,216.960 264.589,217.400 264.400 C 217.904 264.183,217.978 264.056,217.600 264.056 C 217.270 264.056,216.640 264.211,216.200 264.400 M103.274 266.287 C 101.884 266.614,100.827 266.960,100.923 267.057 C 101.128 267.262,106.800 266.018,106.800 265.768 C 106.800 265.521,106.088 265.626,103.274 266.287 M184.600 266.000 C 185.260 266.168,186.250 266.305,186.800 266.305 C 187.692 266.305,187.670 266.272,186.600 266.000 C 185.940 265.832,184.950 265.695,184.400 265.695 C 183.508 265.695,183.530 265.728,184.600 266.000 M121.400 267.234 C 120.300 267.659,119.920 267.905,120.556 267.781 C 121.814 267.537,124.450 266.466,123.800 266.464 C 123.580 266.463,122.500 266.809,121.400 267.234 M188.700 266.682 C 189.195 266.778,190.005 266.778,190.500 266.682 C 190.995 266.587,190.590 266.509,189.600 266.509 C 188.610 266.509,188.205 266.587,188.700 266.682 M198.000 266.800 L 191.800 267.032 197.600 267.076 C 200.790 267.101,204.390 266.984,205.600 266.817 C 208.296 266.444,207.563 266.443,198.000 266.800 M66.400 267.551 C 66.400 268.076,67.434 268.833,67.737 268.530 C 67.882 268.385,68.014 268.612,68.032 269.033 C 68.049 269.455,68.153 269.576,68.264 269.303 C 68.417 268.924,68.670 268.913,69.332 269.257 C 70.514 269.871,70.086 269.454,68.272 268.223 C 66.626 267.106,66.400 267.025,66.400 267.551 M117.600 268.400 C 116.776 268.664,116.741 268.726,117.400 268.754 C 117.840 268.773,118.470 268.613,118.800 268.400 C 119.501 267.947,119.014 267.947,117.600 268.400 M129.000 268.400 C 127.981 268.838,129.032 268.838,130.400 268.400 C 131.204 268.143,131.243 268.077,130.600 268.068 C 130.160 268.062,129.440 268.211,129.000 268.400 M115.192 269.410 C 114.602 270.121,114.665 270.210,116.000 270.569 C 116.856 270.800,116.896 270.773,116.278 270.387 C 115.708 270.030,115.655 269.816,116.027 269.368 C 116.302 269.037,116.331 268.800,116.098 268.800 C 115.878 268.800,115.470 269.074,115.192 269.410 M71.000 270.000 C 71.440 270.189,72.070 270.344,72.400 270.344 C 72.778 270.344,72.704 270.217,72.200 270.000 C 71.760 269.811,71.130 269.656,70.800 269.656 C 70.422 269.656,70.496 269.783,71.000 270.000 M88.100 269.876 C 88.485 269.976,89.115 269.976,89.500 269.876 C 89.885 269.775,89.570 269.693,88.800 269.693 C 88.030 269.693,87.715 269.775,88.100 269.876 M121.505 269.883 C 122.002 269.979,122.722 269.975,123.105 269.875 C 123.487 269.775,123.080 269.696,122.200 269.701 C 121.320 269.705,121.007 269.787,121.505 269.883 M118.500 270.276 C 118.885 270.376,119.515 270.376,119.900 270.276 C 120.285 270.175,119.970 270.093,119.200 270.093 C 118.430 270.093,118.115 270.175,118.500 270.276 M69.600 270.449 C 69.600 270.571,72.615 273.517,76.300 276.996 C 79.985 280.475,81.016 281.359,78.591 278.961 C 72.462 272.899,69.600 270.189,69.600 270.449 M74.307 270.690 C 75.026 270.779,76.106 270.777,76.707 270.686 C 77.308 270.595,76.720 270.522,75.400 270.524 C 74.080 270.526,73.588 270.601,74.307 270.690 M80.100 270.691 C 80.925 270.778,82.275 270.778,83.100 270.691 C 83.925 270.605,83.250 270.534,81.600 270.534 C 79.950 270.534,79.275 270.605,80.100 270.691 M83.200 283.281 C 83.200 283.539,87.667 287.901,95.797 295.581 C 99.475 299.055,99.426 298.991,95.200 294.794 C 87.095 286.746,83.200 283.009,83.200 283.281 M100.000 299.336 C 100.000 299.513,100.235 299.869,100.522 300.129 C 101.127 300.674,106.837 306.116,114.007 312.980 C 123.007 321.596,136.613 334.544,147.000 344.376 L 151.000 348.162 146.597 343.781 C 144.175 341.372,140.302 337.600,137.991 335.400 C 135.680 333.200,131.632 329.339,128.995 326.820 C 126.358 324.302,122.490 320.618,120.400 318.635 C 114.116 312.674,107.619 306.444,103.700 302.623 C 101.665 300.639,100.000 299.160,100.000 299.336 M151.200 348.081 C 151.200 348.339,155.667 352.701,163.797 360.381 C 167.475 363.855,167.426 363.791,163.200 359.594 C 155.095 351.546,151.200 347.809,151.200 348.081 M168.000 364.136 C 168.000 364.313,168.235 364.669,168.522 364.929 C 168.810 365.188,170.837 367.110,173.026 369.200 C 182.401 378.147,186.346 382.031,186.535 382.500 C 186.660 382.810,186.749 382.745,186.768 382.329 C 186.786 381.960,186.305 381.272,185.700 380.801 C 184.680 380.006,180.967 376.458,171.700 367.423 C 169.665 365.439,168.000 363.960,168.000 364.136 " stroke="none" fill="#1c97ba" fill-rule="evenodd"></path></g></svg>